<svg width="18" height="12" viewBox="0 0 18 12" fill="none" xmlns="http://www.w3.org/2000/svg">
<path d="M1.48446 6.30825C1.39438 6.19698 1.31288 6.09368 1.24039 6C1.31288 5.90632 1.39438 5.80302 1.48446 5.69175C1.91801 5.15628 2.54388 4.44437 3.31349 3.73557C4.88844 2.28506 6.89993 1 9 1C11.1001 1 13.1116 2.28506 14.6865 3.73557C15.4561 4.44437 16.082 5.15628 16.5155 5.69175C16.6056 5.80302 16.6871 5.90632 16.7596 6C16.6871 6.09368 16.6056 6.19698 16.5155 6.30825C16.082 6.84372 15.4561 7.55563 14.6865 8.26443C13.1116 9.71494 11.1001 11 9 11C6.89993 11 4.88844 9.71494 3.31349 8.26443C2.54388 7.55563 1.91801 6.84372 1.48446 6.30825Z" stroke="#D9D9D9" stroke-width="2"/>
<circle cx="9" cy="6" r="3" fill="#D9D9D9"/>
</svg>
